<?xml version="1.0" standalone="no"?>
<!DOCTYPE svg PUBLIC "-//W3C//DTD SVG 20010904//EN"
 "http://www.w3.org/TR/2001/REC-SVG-20010904/DTD/svg10.dtd">
<svg version="1.0" xmlns="http://www.w3.org/2000/svg"
 width="64.000000pt" height="64.000000pt" viewBox="0 0 64.000000 64.000000"
 preserveAspectRatio="xMidYMid meet">

<g transform="translate(0.000000,64.000000) scale(0.100000,-0.100000)"
fill="#8eb61f" stroke="1px">
<path d="M236 556 c-58 -22 -108 -67 -139 -127 -26 -48 -28 -62 -24 -122 16
-242 328 -324 457 -121 101 160 -4 368 -192 380 -40 3 -77 -1 -102 -10z m166
-183 c21 -20 38 -44 38 -53 0 -9 -18 -34 -40 -55 -31 -30 -43 -36 -52 -27 -9
9 -8 16 5 30 9 10 17 22 17 25 0 4 -38 7 -85 7 -78 0 -85 2 -85 20 0 18 7 20
87 20 85 0 86 0 68 20 -16 18 -15 50 2 50 4 0 24 -17 45 -37z"/>
</g>
</svg>
