<?xml version="1.0" standalone="no"?>
<!DOCTYPE svg PUBLIC "-//W3C//DTD SVG 20010904//EN"
 "http://www.w3.org/TR/2001/REC-SVG-20010904/DTD/svg10.dtd">
<svg version="1.0" xmlns="http://www.w3.org/2000/svg"
 width="128.000000pt" height="128.000000pt" viewBox="0 0 128.000000 128.000000"
 preserveAspectRatio="xMidYMid meet">

<g transform="translate(0.000000,128.000000) scale(0.100000,-0.100000)"
fill="#0b649e" stroke="none">
<path d="M287 1155 c-15 -15 -17 -64 -17 -515 0 -451 2 -500 17 -515 9 -9 26
-15 37 -13 29 6 674 489 681 511 4 9 4 25 0 35 -7 21 -652 504 -681 510 -11 2
-28 -4 -37 -13z m578 -515 c0 -5 -111 -92 -247 -194 l-248 -186 0 380 0 380
248 -186 c136 -102 247 -189 247 -194z"/>
</g>
</svg>
