<?xml version="1.0" standalone="no"?>
<!DOCTYPE svg PUBLIC "-//W3C//DTD SVG 20010904//EN"
 "http://www.w3.org/TR/2001/REC-SVG-20010904/DTD/svg10.dtd">
<svg version="1.0" xmlns="http://www.w3.org/2000/svg"
 width="64.000000pt" height="64.000000pt" viewBox="0 0 64.000000 64.000000"
 preserveAspectRatio="xMidYMid meet">

<g transform="translate(0.000000,64.000000) scale(0.100000,-0.100000)"
fill="#FFFFFF" stroke="none">
<path d="M245 631 c-92 -24 -173 -90 -215 -176 -20 -42 -25 -64 -24 -135 0
-93 18 -144 73 -211 38 -46 133 -96 199 -105 l52 -7 0 127 0 126 -35 0 c-34 0
-35 1 -35 40 0 39 1 40 35 40 l35 0 0 55 c0 46 4 60 25 80 20 21 34 25 80 25
l55 0 0 -34 c0 -33 -2 -35 -37 -38 -37 -3 -38 -4 -41 -45 l-3 -43 41 0 c34 0
41 -3 36 -16 -3 -9 -6 -27 -6 -40 0 -21 -5 -24 -35 -24 l-35 0 0 -120 0 -120
49 24 c72 37 104 68 142 138 31 58 34 70 34 148 -1 77 -4 91 -35 148 -56 104
-143 160 -259 167 -36 2 -79 1 -96 -4z"/>
</g>
</svg>
