<?xml version="1.0" standalone="no"?>
<!DOCTYPE svg PUBLIC "-//W3C//DTD SVG 20010904//EN"
 "http://www.w3.org/TR/2001/REC-SVG-20010904/DTD/svg10.dtd">
<svg version="1.0" xmlns="http://www.w3.org/2000/svg"
 width="256.000000pt" height="256.000000pt" viewBox="0 0 256.000000 256.000000"
 preserveAspectRatio="xMidYMid meet">

<g transform="translate(0.000000,256.000000) scale(0.100000,-0.100000)"
fill="#000000" stroke="none">
<path d="M1240 2553 c-52 -22 -981 -611 -1008 -639 l-32 -34 0 -596 c0 -530 2
-599 16 -623 11 -18 183 -132 518 -341 463 -290 504 -314 546 -315 42 0 79 21
546 314 334 209 507 324 518 342 14 24 16 94 16 619 0 526 -2 595 -16 619 -11
18 -182 131 -517 340 -498 311 -540 334 -587 314z"/>
</g>
</svg>
