<?xml version="1.0" standalone="no"?>
<!DOCTYPE svg PUBLIC "-//W3C//DTD SVG 20010904//EN"
 "http://www.w3.org/TR/2001/REC-SVG-20010904/DTD/svg10.dtd">
<svg version="1.0" xmlns="http://www.w3.org/2000/svg"
 width="512.000000pt" height="512.000000pt" viewBox="0 0 512.000000 512.000000"
 preserveAspectRatio="xMidYMid meet">

<g transform="translate(0.000000,512.000000) scale(0.100000,-0.100000)"
fill="#0b649e" stroke="none">
<path d="M1401 4824 c-87 -23 -167 -72 -228 -138 -44 -48 -170 -259 -594 -996
-296 -514 -547 -957 -556 -985 -24 -68 -24 -222 0 -290 9 -28 260 -471 556
-985 582 -1010 592 -1026 709 -1088 121 -65 66 -62 1272 -62 1205 0 1151 -3
1271 61 117 63 123 72 703 1077 296 514 548 957 559 985 30 74 30 240 0 314
-11 28 -263 471 -559 985 -580 1005 -586 1014 -703 1077 -120 64 -65 61 -1276
60 -928 0 -1108 -3 -1154 -15z"/>
</g>
</svg>
