<?xml version="1.0" standalone="no"?>
<!DOCTYPE svg PUBLIC "-//W3C//DTD SVG 20010904//EN"
 "http://www.w3.org/TR/2001/REC-SVG-20010904/DTD/svg10.dtd">
<svg version="1.0" xmlns="http://www.w3.org/2000/svg"
 width="64.000000pt" height="64.000000pt" viewBox="0 0 64.000000 64.000000"
 preserveAspectRatio="xMidYMid meet">

<g transform="translate(0.000000,64.000000) scale(0.100000,-0.100000)"
fill="#FFFFFF" stroke="none">
<path d="M230 627 c-223 -63 -302 -328 -144 -481 31 -30 34 -38 34 -90 l0 -57
46 27 c41 24 57 27 142 28 82 1 105 5 153 27 231 109 235 412 5 524 -64 31
-169 41 -236 22z m103 -248 l35 -41 79 43 78 43 -85 -91 -85 -90 -43 41 -43
41 -66 -35 c-37 -19 -71 -37 -77 -39 -6 -2 27 35 74 83 46 47 88 86 91 86 4 0
23 -18 42 -41z"/>
</g>
</svg>
