<?xml version="1.0" standalone="no"?>
<!DOCTYPE svg PUBLIC "-//W3C//DTD SVG 20010904//EN"
 "http://www.w3.org/TR/2001/REC-SVG-20010904/DTD/svg10.dtd">
<svg version="1.0" xmlns="http://www.w3.org/2000/svg"
 width="256.000000pt" height="256.000000pt" viewBox="0 0 256.000000 256.000000"
 preserveAspectRatio="xMidYMid meet">

<g transform="translate(0.000000,256.000000) scale(0.100000,-0.100000)"
fill="#000000" stroke="none">
<path d="M835 2456 c-310 -51 -545 -244 -688 -561 -49 -111 -74 -190 -102
-330 -40 -197 -46 -339 -43 -897 l3 -518 28 -27 27 -28 491 0 491 0 29 33 29
32 0 480 c0 350 -3 486 -12 505 -22 49 -51 55 -248 55 l-180 0 5 58 c27 281
66 403 160 499 49 50 97 73 153 73 35 0 88 25 106 51 14 20 16 58 16 271 l0
248 -29 32 c-26 29 -34 32 -92 34 -35 2 -100 -3 -144 -10z"/>
<path d="M2295 2456 c-116 -20 -199 -49 -293 -103 -301 -174 -481 -514 -531
-1002 -6 -59 -11 -336 -11 -647 l0 -544 29 -32 29 -33 491 0 491 0 27 28 28
27 0 496 0 496 -33 29 -32 29 -180 0 -180 0 0 55 c0 70 25 234 46 305 48 160
149 269 252 270 50 0 99 25 117 60 14 26 16 66 13 275 l-3 245 -27 27 c-23 23
-37 27 -90 30 -35 1 -99 -4 -143 -11z"/>
</g>
</svg>
