<?xml version="1.0" standalone="no"?>
<!DOCTYPE svg PUBLIC "-//W3C//DTD SVG 20010904//EN"
 "http://www.w3.org/TR/2001/REC-SVG-20010904/DTD/svg10.dtd">
<svg version="1.0" xmlns="http://www.w3.org/2000/svg"
 width="512.000000pt" height="512.000000pt" viewBox="0 0 512.000000 512.000000"
 preserveAspectRatio="xMidYMid meet">

<g transform="translate(0.000000,512.000000) scale(0.100000,-0.100000)"
fill="#000000" stroke="none">
<path d="M2385 4850 c-38 -10 -88 -26 -110 -35 -22 -10 -368 -209 -769 -444
-524 -307 -745 -441 -787 -480 -116 -104 -196 -246 -225 -397 -21 -112 -21
-1756 0 -1868 29 -152 109 -293 225 -397 43 -39 260 -171 783 -476 398 -232
748 -433 778 -446 180 -80 404 -75 585 12 107 51 1402 810 1485 870 119 86
220 232 266 386 17 55 18 127 22 940 2 635 0 901 -8 955 -29 183 -134 357
-280 465 -54 39 -1376 815 -1470 862 -144 72 -343 94 -495 53z"/>
</g>
</svg>
