<?xml version="1.0" standalone="no"?>
<!DOCTYPE svg PUBLIC "-//W3C//DTD SVG 20010904//EN"
 "http://www.w3.org/TR/2001/REC-SVG-20010904/DTD/svg10.dtd">
<svg version="1.0" xmlns="http://www.w3.org/2000/svg"
 width="64.000000pt" height="64.000000pt" viewBox="0 0 64.000000 64.000000"
 preserveAspectRatio="xMidYMid meet">

<g transform="translate(0.000000,64.000000) scale(0.100000,-0.100000)"
fill="#FFFFFF" stroke="none">
<path d="M245 631 c-92 -24 -173 -90 -215 -176 -33 -69 -34 -199 -2 -265 35
-71 75 -114 144 -151 58 -31 70 -34 148 -33 72 0 93 4 136 26 75 40 107 70
145 140 31 58 34 70 34 148 0 78 -3 90 -34 148 -57 104 -144 160 -260 167 -36
2 -79 1 -96 -4z m155 -164 c9 -18 29 -38 48 -46 25 -12 32 -21 32 -43 0 -32
-7 -34 -55 -14 l-35 15 0 -75 c0 -86 -16 -126 -60 -149 -47 -24 -95 -19 -132
14 -29 26 -33 35 -33 81 0 46 4 55 33 81 20 18 43 29 62 29 27 0 30 -3 30 -30
0 -25 -4 -30 -25 -30 -40 0 -59 -54 -29 -84 20 -21 53 -20 76 1 16 14 18 33
18 150 l0 133 28 0 c21 0 30 -8 42 -33z"/>
</g>
</svg>
