<?xml version="1.0" standalone="no"?>
<!DOCTYPE svg PUBLIC "-//W3C//DTD SVG 20010904//EN"
 "http://www.w3.org/TR/2001/REC-SVG-20010904/DTD/svg10.dtd">
<svg version="1.0" xmlns="http://www.w3.org/2000/svg"
 width="64.000000pt" height="64.000000pt" viewBox="0 0 64.000000 64.000000"
 preserveAspectRatio="xMidYMid meet">

<g transform="translate(0.000000,64.000000) scale(0.100000,-0.100000)"
fill="#FFFFFF" stroke="none">
<path d="M221 569 c-89 -27 -131 -94 -131 -210 0 -87 23 -146 69 -180 26 -19
31 -29 31 -66 0 -53 14 -55 60 -8 31 32 39 35 92 35 140 0 207 71 208 219 0
148 -64 212 -214 218 -45 1 -96 -2 -115 -8z m212 -109 c20 -23 27 -41 27 -71
0 -46 -16 -46 -18 0 0 16 -6 39 -12 50 -12 23 -59 51 -85 51 -9 0 -14 4 -10 9
10 17 69 -7 98 -39z m-168 -10 c25 -26 27 -33 17 -48 -23 -32 -24 -42 -8 -68
26 -38 61 -51 84 -31 10 10 22 17 27 17 15 0 55 -43 55 -58 0 -47 -72 -68
-120 -35 -71 47 -140 137 -140 182 0 22 34 71 50 71 3 0 19 -14 35 -30z m139
-11 c26 -31 35 -69 16 -69 -5 0 -10 8 -10 18 0 29 -29 62 -56 62 -13 0 -24 5
-24 10 0 23 49 9 74 -21z m-30 -15 c9 -8 16 -22 16 -29 0 -9 -9 -5 -25 11 -14
14 -25 27 -25 29 0 10 19 4 34 -11z"/>
</g>
</svg>
